<?xml version="1.0" standalone="no"?><!-- Generator: Gravit.io --><svg xmlns="http://www.w3.org/2000/svg" xmlns:xlink="http://www.w3.org/1999/xlink" style="isolation:isolate" viewBox="6.371 6.371 269.629 269.629" width="269.629" height="269.629"><defs><clipPath id="_clipPath_uW08X9PGZFh7PL3LDOIqJIauVwTJDOlA"><rect x="6.371" y="6.371" width="269.629" height="269.629"/></clipPath></defs><g clip-path="url(#_clipPath_uW08X9PGZFh7PL3LDOIqJIauVwTJDOlA)"><path d=" M 275.669 25.441 C 276.43 28.057 275.955 31.244 273.434 32.766 C 271.817 33.765 270.2 33.812 268.392 33.812 C 266.299 33.812 264.064 32.909 263.351 30.768 C 262.494 28.01 263.874 25.441 266.87 25.204 C 267.631 25.156 268.392 25.251 269.153 25.204 C 264.54 25.584 264.064 32.1 268.392 33.48 C 270.009 34.003 272.007 32.528 272.816 31.149 C 273.862 29.437 274.195 27.344 273.434 25.441 C 272.055 21.779 268.297 19.306 264.587 21.256 C 261.448 22.873 259.45 25.87 259.308 29.389 L 257.072 29.389 C 257.31 24.3 261.353 20.495 266.442 20.305 C 270.2 20.21 274.433 21.208 275.669 25.441 L 275.669 25.441 Z  M 257.025 6.702 C 254.409 5.941 251.222 6.416 249.7 8.937 C 248.701 10.554 248.654 12.171 248.654 13.979 C 248.654 16.072 249.557 18.307 251.698 19.02 C 254.456 19.877 257.025 18.497 257.263 15.501 C 257.31 14.74 257.215 13.979 257.263 13.218 C 256.882 17.831 250.366 18.307 248.987 13.979 C 248.463 12.362 249.938 10.364 251.317 9.555 C 253.029 8.509 255.122 8.176 257.025 8.937 C 260.687 10.316 263.16 14.074 261.21 17.784 C 259.593 20.923 256.597 22.921 253.077 23.063 L 253.077 25.299 C 258.166 25.061 261.971 21.018 262.162 15.929 C 262.257 12.171 261.305 7.891 257.025 6.702 Z  M 264.254 18.212 C 264.254 12.076 268.154 6.892 274.861 7.605 C 275.574 14.264 270.39 18.212 264.254 18.212 Z  M 264.92 17.498 C 268.963 17.498 272.34 16.452 273.719 12.599 C 274.195 11.315 274.338 9.746 274.195 8.271 C 272.768 8.129 271.198 8.271 269.867 8.747 C 265.967 10.126 264.92 13.503 264.92 17.498 Z  M 6.702 25.441 C 5.941 28.057 6.416 31.244 8.937 32.766 C 10.554 33.765 12.171 33.812 13.979 33.812 C 16.072 33.812 18.307 32.909 19.02 30.768 C 19.877 28.01 18.497 25.441 15.501 25.204 C 14.74 25.156 13.979 25.251 13.218 25.204 C 17.831 25.584 18.307 32.1 13.979 33.48 C 12.362 34.003 10.364 32.528 9.555 31.149 C 8.509 29.437 8.176 27.344 8.937 25.441 C 10.316 21.779 14.074 19.306 17.784 21.256 C 20.923 22.873 22.921 25.87 23.063 29.389 L 25.299 29.389 C 25.061 24.3 21.018 20.495 15.929 20.305 C 12.171 20.21 7.891 21.208 6.702 25.441 L 6.702 25.441 Z  M 20.21 16.024 C 20.352 21.113 24.205 25.156 29.294 25.394 L 29.294 23.158 C 25.774 23.016 22.778 21.018 21.161 17.879 C 19.211 14.121 21.732 10.412 25.346 9.032 C 27.249 8.319 29.342 8.652 31.054 9.651 C 32.433 10.459 33.908 12.457 33.384 14.074 C 32.005 18.402 25.489 17.927 25.109 13.313 C 25.156 14.074 25.061 14.835 25.109 15.596 C 25.346 18.592 27.915 19.972 30.673 19.116 C 32.861 18.402 33.717 16.167 33.717 14.074 C 33.717 12.267 33.67 10.649 32.671 9.032 C 31.149 6.511 27.962 6.036 25.346 6.797 C 21.066 7.891 20.067 12.171 20.21 16.024 L 20.21 16.024 Z  M 7.51 7.605 C 14.217 6.844 18.117 12.076 18.117 18.212 C 11.981 18.212 6.797 14.264 7.51 7.605 Z  M 12.504 8.747 C 11.22 8.271 9.651 8.129 8.176 8.271 C 8.033 9.698 8.176 11.268 8.652 12.599 C 10.031 16.452 13.408 17.546 17.403 17.498 C 17.451 13.503 16.405 10.126 12.504 8.747 Z  M 16.024 262.019 C 21.113 261.876 25.156 258.024 25.394 252.934 L 23.158 252.934 C 23.016 256.454 21.018 259.45 17.879 261.068 C 14.121 263.018 10.412 260.497 9.032 256.882 C 8.319 254.98 8.652 252.887 9.651 251.175 C 10.459 249.795 12.457 248.321 14.074 248.844 C 18.402 250.223 17.927 256.739 13.313 257.12 C 14.074 257.072 14.835 257.167 15.596 257.12 C 18.592 256.882 19.972 254.314 19.116 251.555 C 18.402 249.367 16.167 248.511 14.074 248.511 C 12.267 248.511 10.649 248.559 9.032 249.557 C 6.511 251.079 6.036 254.266 6.797 256.882 C 7.891 261.163 12.171 262.162 16.024 262.019 L 16.024 262.019 Z  M 25.346 275.669 C 27.962 276.43 31.149 275.955 32.671 273.434 C 33.67 271.817 33.717 270.2 33.717 268.392 C 33.717 266.299 32.814 264.064 30.673 263.351 C 27.915 262.494 25.346 263.874 25.109 266.87 C 25.061 267.631 25.156 268.392 25.109 269.153 C 25.489 264.54 32.005 264.064 33.384 268.392 C 33.908 270.009 32.433 272.007 31.054 272.816 C 29.342 273.862 27.249 274.195 25.346 273.434 C 21.684 272.055 19.211 268.297 21.161 264.587 C 22.778 261.448 25.774 259.45 29.294 259.308 L 29.294 257.072 C 24.205 257.31 20.4 261.353 20.21 266.442 C 20.067 270.2 21.066 274.433 25.346 275.669 L 25.346 275.669 Z  M 18.117 264.159 C 18.117 270.295 14.217 275.479 7.51 274.766 C 6.797 268.059 11.981 264.159 18.117 264.159 Z  M 17.451 264.825 C 13.408 264.825 10.031 265.871 8.652 269.724 C 8.176 271.008 8.033 272.578 8.176 274.052 C 9.603 274.195 11.173 274.052 12.504 273.577 C 16.405 272.245 17.451 268.868 17.451 264.825 Z  M 275.669 256.882 C 276.43 254.266 275.955 251.079 273.434 249.557 C 271.817 248.559 270.2 248.511 268.392 248.511 C 266.299 248.511 264.064 249.415 263.351 251.555 C 262.494 254.314 263.874 256.882 266.87 257.12 C 267.631 257.167 268.392 257.072 269.153 257.12 C 264.54 256.739 264.064 250.223 268.392 248.844 C 270.009 248.321 272.007 249.795 272.816 251.175 C 273.862 252.887 274.195 254.98 273.434 256.882 C 272.055 260.544 268.297 263.018 264.587 261.068 C 261.448 259.45 259.45 256.454 259.308 252.934 L 257.072 252.934 C 257.31 258.024 261.353 261.829 266.442 262.019 C 270.2 262.162 274.433 261.163 275.669 256.882 L 275.669 256.882 Z  M 262.162 266.347 C 262.019 261.258 258.166 257.215 253.077 256.977 L 253.077 259.213 C 256.597 259.355 259.593 261.353 261.21 264.492 C 263.16 268.25 260.64 271.959 257.025 273.339 C 255.122 274.052 253.029 273.719 251.317 272.72 C 249.938 271.912 248.463 269.914 248.987 268.297 C 250.366 263.969 256.882 264.445 257.263 269.058 C 257.215 268.297 257.31 267.536 257.263 266.775 C 257.025 263.779 254.456 262.399 251.698 263.255 C 249.51 263.969 248.654 266.204 248.654 268.297 C 248.654 270.105 248.701 271.722 249.7 273.339 C 251.222 275.86 254.409 276.335 257.025 275.574 C 261.305 274.433 262.257 270.2 262.162 266.347 L 262.162 266.347 Z  M 274.813 274.766 C 268.107 275.527 264.207 270.295 264.207 264.159 C 270.39 264.159 275.574 268.059 274.813 274.766 Z  M 269.819 273.624 C 271.103 274.1 272.673 274.242 274.147 274.1 C 274.29 272.673 274.147 271.103 273.672 269.772 C 272.292 265.919 268.915 264.825 264.92 264.873 C 264.92 268.868 265.967 272.245 269.819 273.624 Z  M 259.213 34.336 C 259.213 33.765 257.548 33.194 257.548 32.671 L 257.548 247.988 C 257.548 248.559 259.213 249.129 259.213 249.652 L 259.213 34.336 Z  M 247.988 24.823 C 248.559 24.823 249.129 23.158 249.652 23.158 L 34.336 23.158 C 33.765 23.158 33.194 24.823 32.671 24.823 L 247.988 24.823 L 247.988 24.823 Z  M 247.988 259.213 C 248.559 259.213 249.129 257.548 249.652 257.548 L 34.336 257.548 C 33.765 257.548 33.194 259.213 32.671 259.213 L 247.988 259.213 L 247.988 259.213 Z  M 23.158 247.988 C 23.158 248.559 24.823 249.129 24.823 249.652 L 24.823 34.336 C 24.823 33.765 23.158 33.194 23.158 32.671 L 23.158 247.988 Z " fill="rgb(0,0,0)"/></g></svg>