<?xml version="1.0" standalone="no"?><!-- Generator: Gravit.io --><svg xmlns="http://www.w3.org/2000/svg" xmlns:xlink="http://www.w3.org/1999/xlink" style="isolation:isolate" viewBox="25.394 -120.677 204.701 108.677" width="204.701" height="108.677"><defs><clipPath id="_clipPath_oUfAVMF2pWHlgRuKK4eEzgjcuM2O2G0O"><rect x="25.394" y="-120.677" width="204.701" height="108.677"/></clipPath></defs><g clip-path="url(#_clipPath_oUfAVMF2pWHlgRuKK4eEzgjcuM2O2G0O)"><path d=" M 133.665 -12.449 L 138.24 -24.379 L 123.798 -33.08 L 121.107 -34.695 L 118.371 -36.354 L 117.653 -36.803 L 108.728 -35.906 L 104.915 -29.223 L 105.454 -23.661 L 107.965 -22.45 L 114.424 -19.311 L 117.384 -17.876 L 129.359 -12 L 133.665 -12.449 Z  M 153.444 -35.412 L 157.526 -51.245 L 153.444 -53.129 L 149.722 -43.844 L 131.378 -50.886 L 128.417 -52.007 L 126.534 -52.77 L 125.726 -55.461 L 123.618 -62.233 L 119.402 -61.336 L 115.5 -52.366 L 117.025 -45.235 L 121.465 -43.62 L 124.426 -42.544 L 127.386 -41.512 L 147.748 -34.201 L 153.444 -35.412 L 153.444 -35.412 Z  M 164.702 -82.506 L 151.202 -85.825 L 157.033 -64.117 L 158.333 -63.893 L 163.671 -66.225 L 164.702 -82.506 L 164.702 -82.506 Z  M 168.47 -96.321 L 207.939 -99.595 L 224.982 -99.595 L 230.095 -104.214 L 230.095 -110.897 L 224.668 -116.19 L 207.849 -119.554 C 195.784 -119.912 182.329 -120.092 180.176 -119.688 C 179.234 -119.374 175.466 -118.656 148.6 -115.382 C 145.461 -114.979 141.2 -114.485 136.805 -113.947 C 139.182 -111.884 141.918 -109.507 145.057 -106.681 L 145.775 -106.053 L 148.421 -96.321 L 168.47 -96.321 L 168.47 -96.321 Z  M 47.909 -30.389 L 48.717 -30.389 L 48.717 -103.407 L 25.394 -103.407 L 25.394 -30.389 L 47.909 -30.389 L 47.909 -30.389 Z  M 93.209 -118.881 L 89.935 -97.307 L 89.307 -93.181 L 88.679 -89.055 L 85.898 -70.755 L 77.825 -70.082 L 74.058 -69.769 L 70.29 -69.455 L 55.041 -68.244 L 55.041 -38.507 L 56.476 -38.911 L 60.737 -40.077 L 89.352 -47.747 L 108.728 -87.261 L 118.864 -84.614 L 121.914 -83.807 L 122.407 -83.672 L 123.708 -83.314 L 124.47 -80.847 L 126.803 -73.357 L 127.969 -69.544 L 128.283 -68.468 L 128.866 -66.539 L 129.314 -65.149 L 129.808 -63.534 L 130.346 -61.785 L 131.692 -57.434 L 131.826 -57.39 L 146.223 -51.873 L 147.748 -55.73 L 148.914 -58.645 L 149.049 -58.959 L 150.081 -61.561 L 150.215 -61.92 L 150.753 -63.265 L 150.26 -65.104 L 144.205 -87.485 L 143.532 -89.996 L 143.263 -90.983 L 142.68 -93.136 L 142.321 -94.437 L 141.828 -96.276 L 140.124 -102.6 C 136.087 -106.143 131.871 -109.821 128.238 -112.96 C 127.072 -113.947 125.995 -114.889 124.964 -115.741 C 123.708 -116.818 122.587 -117.759 121.6 -118.522 C 120.344 -119.554 119.402 -120.271 118.819 -120.675 C 116.263 -120.72 105.543 -119.912 93.209 -118.881 L 93.209 -118.881 Z  M 98.457 -30.613 L 104.915 -41.826 L 111.194 -42.454 L 108.907 -53.039 L 114.962 -66.808 L 119.671 -67.84 L 116.621 -74.971 L 117.429 -78.515 L 112.047 -79.95 L 93.702 -42.499 L 57.642 -32.811 C 66.253 -30.793 84.598 -26.666 99.219 -23.392 L 98.457 -30.613 Z  M 78.049 -117.535 L 54.996 -102.645 L 54.996 -75.33 L 54.413 -74.568 L 54.996 -74.612 L 74.013 -76.137 L 77.78 -76.451 L 80.426 -76.676 L 81.323 -82.731 L 82.624 -91.342 L 86.437 -116.638 L 86.706 -118.343 C 83.88 -118.073 80.92 -117.804 78.049 -117.535 L 78.049 -117.535 Z " fill="rgb(36,47,91)"/></g></svg>